<svg width="66" height="109" xmlns="http://www.w3.org/2000/svg" xmlns:xlink="http://www.w3.org/1999/xlink" xml:space="preserve" overflow="hidden"><defs><clipPath id="clip0"><rect x="1165" y="29" width="66" height="109"/></clipPath></defs><g clip-path="url(#clip0)" transform="translate(-1165 -29)"><path d="M73.4888 54.7345C73.1142 54.7345 72.7798 54.5347 72.6547 54.2355L72.6547 54.2355C72.3433 53.5105 72.1195 52.751 71.9877 51.9731 71.8779 51.2804 71.8239 50.0819 71.8239 48.3116L71.8239 39.8646C71.8239 37.4641 71.2744 36.3942 70.814 35.9158 70.1873 35.2677 69.0137 34.9376 67.3257 34.9376L66.1306 34.9376C65.6419 34.9376 65.2459 35.2729 65.2459 35.6861L65.2459 53.986C65.2459 54.3993 64.8498 54.7345 64.3611 54.7345L55.7795 54.7345C55.2917 54.7345 54.8956 54.3993 54.8956 53.986L54.8956 7.79631C54.8956 7.38309 55.2917 7.04788 55.7795 7.04788L68.4985 7.04788C73.1433 7.04788 76.6103 8.00035 78.8015 9.87698 80.9928 11.7536 82.0996 14.6264 82.0996 18.42L82.0996 21.2611C82.0996 25.1687 80.8839 28.0158 78.48 29.763 78.0591 30.0699 78.0848 30.6314 78.5246 30.9195 79.4906 31.5445 80.2791 32.4082 80.8136 33.4271 81.7181 35.1417 82.1776 37.4444 82.1776 40.2649L82.1776 48.3776C82.1776 49.6704 82.2282 50.7206 82.3285 51.4964 82.4314 52.2615 82.6713 53.0017 83.0366 53.6817L83.0366 53.6817C83.2938 54.1772 82.8694 54.7345 82.229 54.7345ZM67.4817 26.8439C68.9391 26.8439 70.0279 26.5429 70.7086 25.9497 71.3893 25.3564 71.7459 24.2591 71.7459 22.7091L71.7459 19.1461C71.7459 17.6561 71.4562 16.5914 70.8886 15.9818 70.3588 15.4177 69.5006 15.1434 68.2661 15.1434L66.1306 15.1434C65.6419 15.1434 65.2459 15.4777 65.2459 15.891L65.2459 26.0929C65.2459 26.5061 65.6419 26.8413 66.1306 26.8413Z" transform="matrix(1.00733 0 0 1 1135.85 23.0032)"/><path d="M55.7804 8.54473C55.7804 8.13151 56.1756 7.79631 56.6643 7.79631L68.4985 7.79631C72.9187 7.79631 76.1433 8.66501 78.1723 10.4025 80.2012 12.14 81.2154 14.8125 81.2148 18.42L81.2148 21.2611C81.2148 26.0557 79.3425 29.0908 75.5978 30.3665L75.5978 30.4985C77.6776 31.0266 79.1468 32.1045 80.0052 33.7323 80.8636 35.36 81.2922 37.5376 81.2911 40.2649L81.2911 48.3776C81.2911 49.6972 81.3432 50.764 81.4472 51.5779 81.5102 52.0686 81.6275 52.5508 81.7969 53.0156 81.9684 53.4982 81.55 53.986 80.9534 53.986L74.1292 53.986C73.7434 53.986 73.3988 53.7752 73.2856 53.4631 73.0952 52.9482 72.9546 52.4162 72.8656 51.8745 72.761 51.215 72.7089 50.0273 72.7095 48.3116L72.7095 39.8646C72.7095 37.7533 72.3066 36.2796 71.5007 35.4435 70.6949 34.6073 69.3035 34.1895 67.3265 34.1901L65.2459 34.1901C64.7572 34.1901 64.3611 34.5244 64.3611 34.9376L64.3611 53.2385C64.3611 53.6517 63.965 53.986 63.4772 53.986L56.6677 53.986C56.179 53.986 55.7838 53.6517 55.7838 53.2385ZM67.4817 27.5923C69.1963 27.5923 70.4837 27.2182 71.3438 26.4701 72.204 25.7219 72.6326 24.4683 72.6298 22.7091L72.6298 19.1461C72.6298 17.4744 72.2789 16.2645 71.577 15.5163 70.8752 14.7681 69.7698 14.3944 68.261 14.395L65.2459 14.395C64.7572 14.395 64.3611 14.7302 64.3611 15.1434L64.3611 26.8439C64.3611 27.2571 64.7572 27.5923 65.2459 27.5923Z" transform="matrix(1.00733 0 0 1 1135.85 23.0032)"/><text font-family="Bebas Neue,Bebas Neue_MSFontService,sans-serif" font-weight="400" font-size="150" transform="matrix(0.0777224 0 0 0.0857302 1169.1 135)">S</text><text font-family="Bebas Neue,Bebas Neue_MSFontService,sans-serif" font-weight="400" font-size="150" transform="matrix(0.0777224 0 0 0.0857302 1179.4 135)">T</text><text font-family="Bebas Neue,Bebas Neue_MSFontService,sans-serif" font-weight="400" font-size="150" transform="matrix(0.0777224 0 0 0.0857302 1189.64 135)">YL</text><text font-family="Bebas Neue,Bebas Neue_MSFontService,sans-serif" font-weight="400" font-size="150" transform="matrix(0.0777224 0 0 0.0857302 1210.16 135)">E</text><text font-family="Bebas Neue,Bebas Neue_MSFontService,sans-serif" font-weight="400" font-size="150" transform="matrix(0.0777224 0 0 0.0857302 1220.37 135)">S</text><path d="M50.8655 100.733C46.3775 100.733 42.8986 99.7154 40.5273 97.7093 38.156 95.7032 36.9497 92.7841 36.9497 89.0326L36.9497 85.0727C36.9497 80.2546 38.7424 76.9909 42.2847 75.3466 42.303 75.3399 42.3123 75.3198 42.3056 75.3015 42.3021 75.2918 42.2944 75.2841 42.2847 75.2806 41.0458 74.6063 40.0055 73.6186 39.2679 72.4163 38.3026 70.82 37.807 68.7557 37.807 66.2695L37.807 64.4194C37.807 60.6259 38.9164 57.7522 41.1042 55.8764 43.2921 54.0006 46.7624 53.0473 51.4081 53.0473L65.2459 53.0473 65.2459 100.733ZM51.9577 79.9477C50.2534 79.9477 49.0428 80.2744 48.3656 80.9182 47.8812 81.3786 47.3034 82.427 47.3034 84.8086L47.3034 88.838C47.3034 90.2894 47.6017 91.337 48.1667 91.8668 48.7316 92.3966 49.6069 92.6384 50.8655 92.6384L54.8948 92.6384 54.8948 79.9503ZM51.6456 61.1428C50.4102 61.1428 49.5529 61.4171 49.0223 61.9821 48.4513 62.5908 48.1607 63.6556 48.1607 65.1456L48.1607 67.7175C48.1607 69.2675 48.5096 70.3579 49.198 70.9572 49.8864 71.5565 50.9649 71.8522 52.4258 71.8522L54.8956 71.8522 54.8956 61.1428Z" transform="matrix(1.00733 0 0 1 1135.85 23.0032)"/><path d="M64.3611 99.9855 50.8655 99.9855C46.6012 99.9855 43.3635 99.051 41.1522 97.1812 38.941 95.3115 37.8359 92.5972 37.837 89.0368L37.837 85.0727C37.837 79.8826 39.9694 76.6714 44.2342 75.4392L44.2342 75.3072C42.3619 74.647 40.9705 73.5694 40.06 72.0743 39.1496 70.5791 38.6946 68.6442 38.6952 66.2695L38.6952 64.4194C38.6952 60.813 39.7094 58.1408 41.7378 56.4028 43.7661 54.6648 46.9907 53.7957 51.4116 53.7957L64.3568 53.7957ZM55.7795 93.3842 55.7795 79.2002 51.9577 79.2002C49.9818 79.2002 48.5645 79.6071 47.7055 80.421 46.8464 81.2348 46.4178 82.6977 46.4195 84.8095L46.4195 88.8388C46.4195 90.5106 46.7836 91.6868 47.5117 92.3683 48.2398 93.0499 49.3581 93.3902 50.8663 93.3911ZM55.7795 72.5989 55.7795 60.3944 51.6456 60.3944C50.1379 60.3944 49.0326 60.7684 48.3296 61.5166 47.6266 62.2648 47.2757 63.4744 47.2768 65.1456L47.2768 67.7175C47.2768 69.4778 47.7055 70.7315 48.5628 71.4784 49.4201 72.2254 50.706 72.5992 52.4206 72.5998Z" transform="matrix(1.00733 0 0 1 1135.85 23.0032)"/><path d="M42.4819 55.0028C38.1362 55.0028 34.7542 53.9226 32.4317 51.7931 30.1273 49.679 28.9597 46.6887 28.9597 42.9054L28.9597 35.6243 38.8418 35.6243 38.8418 43.4335C38.8418 46.5129 40.6627 46.9082 42.2479 46.9082 43.833 46.9082 45.6539 46.5129 45.6539 43.4335L45.6539 17.633C45.6539 14.4944 43.8339 14.0915 42.2479 14.0915 40.6618 14.0915 38.8418 14.4944 38.8418 17.633L38.8418 23.7258 28.9597 23.7258 28.9597 18.0942C28.9597 14.3109 30.1273 11.3215 32.4317 9.20743 34.7542 7.07703 38.1362 6.00112 42.4819 6.00112 46.8276 6.00112 50.2113 7.08132 52.5329 9.21171 54.8365 11.3241 56.005 14.3144 56.005 18.0985L56.005 42.9054C56.005 46.6895 54.8365 49.6781 52.5329 51.7931 50.2113 53.9243 46.8293 55.0028 42.4819 55.0028Z" transform="matrix(1.00733 0 0 1 1135.85 23.0032)"/><path d="M42.4819 54.2544C38.3748 54.2544 35.2414 53.2648 33.0816 51.2855 30.9218 49.3063 29.8427 46.5129 29.8444 42.9054L29.8444 36.3728 37.9579 36.3728 37.9579 43.4335C37.9579 46.2489 39.3868 47.6566 42.2444 47.6566 45.1021 47.6566 46.5324 46.2489 46.5352 43.4335L46.5352 17.633C46.5352 14.7753 45.105 13.3465 42.2444 13.3465 39.3839 13.3465 37.9551 14.7753 37.9579 17.633L37.9579 22.9757 29.8444 22.9757 29.8444 18.0891C29.8444 14.4833 30.9235 11.6899 33.0816 9.70895 35.2397 7.72801 38.3731 6.74011 42.4819 6.74526 46.5912 6.74526 49.725 7.73486 51.8831 9.71409 54.0412 11.6933 55.1217 14.4867 55.1245 18.0942L55.1245 42.9054C55.1245 46.5129 54.0455 49.3063 51.8874 51.2855 49.7293 53.2648 46.5941 54.2544 42.4819 54.2544Z" transform="matrix(1.00733 0 0 1 1135.85 23.0032)"/><path d="M77.7505 102.533C73.4022 102.533 70.021 101.453 67.6995 99.3228 65.3959 97.2104 64.2274 94.2201 64.2274 90.436L64.2274 65.6256C64.2274 61.8415 65.3959 58.853 67.6995 56.738 70.021 54.6084 73.4022 53.5282 77.7505 53.5282 82.0987 53.5282 85.4782 54.6084 87.8006 56.738 90.1051 58.8521 91.2727 61.8424 91.2727 65.6256L91.2727 71.2573 81.3906 71.2573 81.3906 65.1636C81.3906 62.0258 79.5697 61.6229 77.9845 61.6229 76.3994 61.6229 74.5776 62.0258 74.5776 65.1636L74.5776 90.9641C74.5776 94.0444 76.3985 94.4396 77.9845 94.4396 79.5705 94.4396 81.3906 94.0444 81.3906 90.9641L81.3906 83.1583 91.2727 83.1583 91.2727 90.4394C91.2727 94.2227 90.1051 97.2121 87.8006 99.3262 85.4782 101.454 82.0961 102.533 77.7505 102.533Z" transform="matrix(1.00733 0 0 1 1135.85 23.0032)"/><path d="M68.3493 98.817C66.1906 96.8366 65.1115 94.0435 65.1121 90.4368L65.1121 65.6256C65.1121 62.0187 66.1912 59.2253 68.3493 57.2455 70.5074 55.2657 73.6412 54.2761 77.7505 54.2767 81.8581 54.2767 84.9915 55.2663 87.1508 57.2455 89.3103 59.2248 90.3888 62.0181 90.388 65.6256L90.388 70.5123 82.2753 70.5123 82.2753 65.1636C82.2753 62.3059 80.8451 60.877 77.9845 60.877 75.124 60.877 73.6952 62.3059 73.698 65.1636L73.698 90.9641C73.698 93.7803 75.1269 95.188 77.9845 95.1871 80.8422 95.1863 82.2725 93.7786 82.2753 90.9641L82.2753 83.9042 90.388 83.9042 90.388 90.4368C90.388 94.0444 89.3086 96.8375 87.1508 98.817 84.9927 100.796 81.8593 101.786 77.7505 101.786 73.64 101.786 70.5063 100.796 68.3493 98.817Z" transform="matrix(1.00733 0 0 1 1135.85 23.0032)"/><path d="M0 20.847 9.80582 20.847 9.80582 26.1117-2.35465e-07 26.1117Z" transform="matrix(1.00733 0 0 1 1165.02 29)"/><path d="M52.5072 68.5739 62.313 68.5739 62.313 73.8386 52.5072 73.8386Z" transform="matrix(1.00733 0 0 1 1165.02 29)"/></g></svg>